<svg width="143" height="46" viewBox="0 0 143 46" fill="none" xmlns="http://www.w3.org/2000/svg">
<path d="M13.366 28H17.334C19.222 28 20.71 26.848 20.71 24.848C20.71 23.504 19.974 22.384 18.822 22.064V22.032C19.686 21.6 20.246 20.752 20.246 19.584C20.246 17.824 18.966 16.752 17.206 16.752H13.366V28ZM14.47 21.632V17.744H17.174C18.374 17.744 19.11 18.512 19.11 19.664C19.11 20.832 18.342 21.632 17.206 21.632H14.47ZM14.47 27.008V22.592H17.334C18.646 22.592 19.558 23.472 19.558 24.816C19.558 26.16 18.71 27.008 17.35 27.008H14.47ZM22.3614 23.984C22.3614 26.48 24.2014 28.192 26.5854 28.192C27.8174 28.192 29.0174 27.696 29.7214 26.912L29.2254 26.096C28.5854 26.8 27.5774 27.2 26.6494 27.2C24.8574 27.2 23.4814 25.872 23.4814 23.984C23.4814 22.064 24.8574 20.736 26.6174 20.736C27.5134 20.736 28.4094 21.152 28.9694 21.728L29.5294 20.912C28.8094 20.128 27.6414 19.76 26.5854 19.76C24.2174 19.76 22.3614 21.504 22.3614 23.984ZM30.8458 23.984C30.8458 26.464 32.6698 28.192 35.0698 28.192C36.1258 28.192 37.2938 27.76 38.0458 27.072L37.5498 26.24C36.8938 26.832 35.9818 27.2 35.1018 27.2C33.4378 27.2 32.0298 26.064 31.9818 24.016H38.1578C38.1737 23.84 38.1898 23.648 38.1898 23.472C38.1898 21.472 37.0538 19.76 34.8298 19.76C32.6538 19.76 30.8458 21.344 30.8458 23.984ZM32.0298 23.152C32.2858 21.536 33.4538 20.656 34.7977 20.656C35.9978 20.656 37.0218 21.472 37.0858 23.152H32.0298ZM44.2335 28H45.3215V24.352H50.0255V28H51.1135V19.952H50.0255V23.392H45.3215V19.952H44.2335V28ZM53.1583 23.936C53.1583 26.368 55.0463 28.192 57.3983 28.192C59.7503 28.192 61.6543 26.368 61.6543 23.936C61.6543 21.552 59.7503 19.76 57.3983 19.76C55.0463 19.76 53.1583 21.552 53.1583 23.936ZM54.2783 23.936C54.2783 22.112 55.6703 20.736 57.3983 20.736C59.1263 20.736 60.5343 22.112 60.5343 23.936C60.5343 25.824 59.1263 27.2 57.3983 27.2C55.6703 27.2 54.2783 25.824 54.2783 23.936ZM63.6866 28H66.7586C68.5666 28 69.6706 27.136 69.6706 25.744C69.6706 24.8 69.0786 24.016 68.0386 23.808V23.776C68.8226 23.488 69.2546 22.832 69.2546 22C69.2546 20.672 68.2306 19.952 66.5986 19.952H63.6866V28ZM64.7746 23.44V20.784H66.4226C67.5586 20.784 68.1346 21.2 68.1346 22.064C68.1346 22.928 67.5746 23.44 66.4866 23.44H64.7746ZM64.7746 27.152V24.272H66.5986C67.8466 24.272 68.5506 24.784 68.5506 25.728C68.5506 26.592 67.9426 27.152 66.6146 27.152H64.7746ZM71.1895 23.936C71.1895 26.368 73.0775 28.192 75.4295 28.192C77.7815 28.192 79.6855 26.368 79.6855 23.936C79.6855 21.552 77.7815 19.76 75.4295 19.76C73.0775 19.76 71.1895 21.552 71.1895 23.936ZM72.3095 23.936C72.3095 22.112 73.7015 20.736 75.4295 20.736C77.1575 20.736 78.5655 22.112 78.5655 23.936C78.5655 25.824 77.1575 27.2 75.4295 27.2C73.7015 27.2 72.3095 25.824 72.3095 23.936ZM81.1739 23.984C81.1739 26.48 83.0139 28.192 85.3979 28.192C86.6299 28.192 87.8299 27.696 88.5339 26.912L88.0379 26.096C87.3979 26.8 86.3899 27.2 85.4619 27.2C83.6699 27.2 82.2939 25.872 82.2939 23.984C82.2939 22.064 83.6699 20.736 85.4299 20.736C86.3259 20.736 87.2219 21.152 87.7819 21.728L88.3419 20.912C87.6219 20.128 86.4539 19.76 85.3979 19.76C83.0299 19.76 81.1739 21.504 81.1739 23.984ZM92.3898 28H93.4778V20.912H96.4218V19.952H89.4618V20.912H92.3898V28ZM98.0929 28H99.1329L103.085 22.704C103.389 22.256 103.885 21.616 103.901 21.536H103.933C103.933 21.6 103.885 22.24 103.885 22.704V28H104.957V19.952H103.917L99.9649 25.232C99.6449 25.68 99.1649 26.368 99.1329 26.432H99.1009C99.1169 26.4 99.1489 25.728 99.1489 25.232V19.952H98.0929V28Z" fill="#956D84"/>
<g opacity="0.4" clip-path="url(#clip0_40_3739)">
<path d="M122.25 21.75L121.369 22.6312L124.231 25.5L121.369 28.3688L122.25 29.25L126 25.5L122.25 21.75Z" fill="#956D84"/>
</g>
<g opacity="0.7" clip-path="url(#clip1_40_3739)">
<path d="M128.25 21.75L127.369 22.6312L130.231 25.5L127.369 28.3688L128.25 29.25L132 25.5L128.25 21.75Z" fill="#956D84"/>
</g>
<g opacity="0.9" clip-path="url(#clip2_40_3739)">
<path d="M134.25 21.75L133.369 22.6312L136.231 25.5L133.369 28.3688L134.25 29.25L138 25.5L134.25 21.75Z" fill="#956D84"/>
</g>
<defs>
<clipPath id="clip0_40_3739">
<rect width="15" height="15" fill="white" transform="translate(116 18)"/>
</clipPath>
<clipPath id="clip1_40_3739">
<rect width="15" height="15" fill="white" transform="translate(122 18)"/>
</clipPath>
<clipPath id="clip2_40_3739">
<rect width="15" height="15" fill="white" transform="translate(128 18)"/>
</clipPath>
</defs>
</svg>
