<svg width="100" height="94" viewBox="0 0 100 94" fill="none" xmlns="http://www.w3.org/2000/svg">
<path d="M28.1861 28.1069H30.1352C29.3877 27.0826 28.7564 25.9698 28.2416 24.7905C27.3115 22.6369 26.7967 20.2783 26.7967 17.8035C26.7967 15.6442 27.1898 13.5625 27.915 11.636C28.6625 9.63733 29.7588 7.81565 31.1318 6.24338C31.6633 5.6344 32.5879 5.57327 33.1914 6.10491C33.8004 6.63655 33.8613 7.55549 33.3297 8.16448C32.1836 9.47659 31.2701 10.9938 30.65 12.6547C30.0521 14.2491 29.7254 15.9821 29.7254 17.8035C29.7254 19.8854 30.1518 21.8561 30.9213 23.6334C31.6465 25.3055 32.6818 26.8225 33.9496 28.1069H54.8277C56.0955 26.8225 57.1309 25.3055 57.8561 23.6334C58.6256 21.8561 59.052 19.8854 59.052 17.8035C59.052 13.7563 57.4131 10.0856 54.7557 7.43362C52.1035 4.78186 48.4385 3.13752 44.3857 3.13752C43.2674 3.13752 42.1877 3.2592 41.1635 3.48616C40.1115 3.72424 39.0873 4.07854 38.1184 4.53811C37.3875 4.88694 36.5184 4.57151 36.175 3.84065C35.8262 3.10979 36.1418 2.24065 36.8727 1.89749C38.0187 1.35491 39.2479 0.92854 40.5379 0.640649C41.7893 0.358228 43.0791 0.208618 44.3857 0.208618C49.2469 0.208618 53.6428 2.17971 56.8318 5.36311C58.3766 6.90784 59.6332 8.74045 60.5191 10.7725C61.2443 9.11155 62.2188 7.58323 63.3926 6.24358C63.924 5.6346 64.8486 5.57346 65.4521 6.1051C66.0611 6.63674 66.1221 7.55569 65.5904 8.16467C64.4443 9.47678 63.5309 10.994 62.9053 12.6549C62.3072 14.2492 61.9807 15.9823 61.9807 17.8037C61.9807 19.8856 62.4125 21.8563 63.1822 23.6336C63.9074 25.3057 64.9371 26.8227 66.2105 28.1071H87.083C88.3564 26.8227 89.3918 25.3057 90.117 23.6336C90.8865 21.8563 91.3129 19.8856 91.3129 17.8037C91.3129 13.7565 89.6686 10.0858 87.0166 7.43382C84.3646 4.78206 80.6996 3.13772 76.6469 3.13772C75.523 3.13772 74.4488 3.2594 73.4246 3.48635C72.3727 3.72444 71.3484 4.07874 70.3795 4.53831C69.6486 4.88713 68.7795 4.57171 68.4307 3.84085C68.0875 3.10999 68.4029 2.24085 69.1283 1.89768C70.2799 1.3551 71.509 0.928736 72.7936 0.640845C74.0504 0.358423 75.3404 0.208814 76.6469 0.208814C81.508 0.208814 85.9039 2.17991 89.0873 5.36331C92.2707 8.5469 94.2418 12.9483 94.2418 17.8039C94.2418 20.2787 93.727 22.6373 92.7912 24.7908C92.2818 25.9701 91.6451 27.083 90.9033 28.1073H92.8465C94.8176 28.1073 96.6059 28.9157 97.9014 30.2112C99.1973 31.5063 100 33.2944 100 35.26V73.3674C100 75.3385 99.1973 77.1266 97.9016 78.4223C96.6061 79.7178 94.8178 80.5205 92.8467 80.5205H82.477L78.9891 92.7286C78.8119 93.3596 78.2361 93.7914 77.5828 93.7914H43.4559C42.7639 93.7914 42.1824 93.3098 42.0275 92.6621L38.5617 80.5205H28.1861C26.2207 80.5205 24.4324 79.7178 23.1369 78.4223C21.8414 77.1266 21.0332 75.3383 21.0332 73.3674V64.8799H16.0004V67.7754C16.0004 68.4842 15.4965 69.0823 14.8211 69.2151L1.87129 72.9688C0.946875 73.2403 0 72.5371 0 71.5684V57.6328C0 56.8244 0.658789 56.1657 1.46719 56.1657C2.27539 56.1657 2.92871 56.8244 2.92871 57.6328V69.6248L13.0717 66.6793C13.0717 58.4356 13.0717 50.1916 13.0717 41.9479L2.92871 39.008V50.9946C2.92871 51.8086 2.27539 52.4617 1.46719 52.4617C0.658789 52.4617 0 51.8084 0 50.9946V37.0594C0 36.0241 1.04648 35.3264 1.99316 35.6973L14.943 39.451C15.5686 39.6338 16.0004 40.2039 16.0004 40.8518V43.7475H21.033V35.26C21.033 33.2944 21.8414 31.5063 23.1367 30.2108C24.4326 28.9096 26.2207 28.1069 28.1861 28.1069ZM76.6471 10.5229C78.6568 10.5229 80.4783 11.3367 81.7961 12.6545C83.1137 13.9721 83.9275 15.7936 83.9275 17.8033C83.9275 19.8129 83.1137 21.6346 81.7961 22.9522C80.4783 24.2699 78.6568 25.0838 76.6471 25.0838C74.6373 25.0838 72.8158 24.2699 71.4982 22.9522C70.1805 21.6346 69.3666 19.8131 69.3666 17.8033C69.3666 15.7936 70.1805 13.9721 71.4982 12.6545C72.8158 11.3367 74.6373 10.5229 76.6471 10.5229ZM79.7254 14.7252C78.9393 13.9391 77.8484 13.4518 76.6471 13.4518C75.4457 13.4518 74.3605 13.9389 73.5687 14.7252C72.7826 15.5168 72.2953 16.602 72.2953 17.8035C72.2953 19.0049 72.7824 20.0957 73.5687 20.8817C74.3605 21.6678 75.4455 22.1553 76.6471 22.1553C77.8484 22.1553 78.9393 21.668 79.7254 20.8817C80.5115 20.0957 80.9988 19.0049 80.9988 17.8035C80.9988 16.602 80.5115 15.5168 79.7254 14.7252ZM44.3859 10.5229C46.4012 10.5229 48.2172 11.3367 49.535 12.6545C50.8525 13.9721 51.6664 15.7936 51.6664 17.8033C51.6664 19.8129 50.8525 21.6346 49.535 22.9522C48.2172 24.2699 46.4014 25.0838 44.3859 25.0838C42.3762 25.0838 40.5604 24.2699 39.2426 22.9522C37.9248 21.6346 37.1055 19.8131 37.1055 17.8033C37.1055 15.7936 37.925 13.9721 39.2426 12.6545C40.5604 11.3367 42.3762 10.5229 44.3859 10.5229ZM47.4645 14.7252C46.6783 13.9391 45.593 13.4518 44.3861 13.4518C43.1848 13.4518 42.0996 13.9389 41.3135 14.7252C40.5273 15.5168 40.04 16.602 40.04 17.8035C40.04 19.0049 40.5271 20.0957 41.3135 20.8817C42.0996 21.6678 43.1848 22.1553 44.3861 22.1553C45.5875 22.1553 46.6783 21.668 47.4645 20.8817C48.2506 20.0957 48.7379 19.0049 48.7379 17.8035C48.7377 16.602 48.2504 15.5168 47.4645 14.7252ZM50.0609 58.5686C50.6367 59.1387 50.6367 60.069 50.0609 60.6393C49.4906 61.2094 48.5605 61.2094 47.9902 60.6393L43.7936 56.4424C41.6842 54.333 40.6322 51.5594 40.6322 48.7854C40.6322 46.0117 41.6842 43.2325 43.7936 41.1284C45.8311 39.0909 48.5715 37.967 51.4506 37.967C54.2244 37.967 56.9982 39.019 59.1076 41.1284L60.5195 42.5403L61.9313 41.1284C64.0352 39.019 66.8145 37.967 69.5883 37.967C72.3621 37.967 75.1357 39.019 77.2453 41.1284C79.2771 43.1604 80.4066 45.9063 80.4066 48.7854C80.4066 51.5594 79.3492 54.3385 77.2453 56.4424L61.5549 72.1274C60.9846 72.7032 60.0545 72.7032 59.4842 72.1274L52.6853 65.3286C52.1096 64.7584 52.1096 63.8338 52.6853 63.2578C53.2557 62.6877 54.1857 62.6877 54.7561 63.2578L60.5195 69.0213L75.1746 54.3662C76.6584 52.8825 77.4777 50.8838 77.4777 48.7854C77.4777 46.7592 76.708 44.7328 75.1746 43.1991C73.6356 41.6655 71.6146 40.8959 69.5883 40.8959C67.5619 40.8959 65.5355 41.6655 64.002 43.1991L61.5547 45.6461C60.9844 46.2164 60.0543 46.2164 59.484 45.6461L57.0369 43.1991C55.5531 41.7153 53.5488 40.8903 51.4506 40.8903C49.4297 40.8903 47.4035 41.66 45.8643 43.1991C44.3307 44.7328 43.5611 46.7592 43.5611 48.7854C43.5611 50.8117 44.3307 52.8326 45.8643 54.3717L50.0609 58.5686ZM21.0332 61.9514V46.6817H16.0004V61.9514H21.0332ZM60.5193 24.8239C60.01 25.9918 59.3789 27.0938 58.6426 28.1069H62.3908C61.6598 27.0936 61.0287 25.9918 60.5193 24.8239ZM79.432 80.5207H41.6012L44.5576 90.8629H76.4754L79.432 80.5207ZM92.8467 31.0358C71.2934 31.0358 49.7398 31.0358 28.1861 31.0358C27.0291 31.0358 25.9717 31.5119 25.2076 32.2815C24.4381 33.0453 23.9619 34.1028 23.9619 35.2602V73.3676C23.9619 74.5303 24.4381 75.5823 25.2076 76.352C25.9717 77.1159 27.0291 77.5922 28.1861 77.5922H92.8467C94.0094 77.5922 95.0668 77.1161 95.8309 76.352C96.5951 75.5823 97.0711 74.5303 97.0711 73.3676V35.2602C97.0711 34.103 96.5949 33.0455 95.8309 32.2815C95.067 31.5118 94.0096 31.0358 92.8467 31.0358Z" fill="white"/>
</svg>
